# xmcd
#
# Track frame offsets: 
#        150
#        17109
#        34641
#        50674
#        68034
#        85780
#        99625
#        118067
#        133818
#        152265
#        169722
#        187113
#        203245
#        221841
#        240066
#        255265
#        268508
#        288059
#        304227
#        319295
#
# Disc length: 4467 seconds
#
# Revision: 0
# Processed by: cddbd v1.5.1PL2 Copyright (c) Steve Scherf et al.
# Submitted via: ExactAudioCopy v0.95b2
#
DISCID=14117114
DTITLE=Various Artist - Фабрика Звёзд 6
DYEAR=2006
DGENRE=Pop
TTITLE0=Хворостян Алексей/Я Служу России
TTITLE1=Гуркова Александра/Астрология
TTITLE2=Фабрика Звёзд/Чужая Невеста
TTITLE3=Лысенко Юлия/Я Так Тебя Люблю
TTITLE4=Колдун Дмитрий/Несерьёзно
TTITLE5=Воронина Ольга/Семь Печальных Нот
TTITLE6=Петров Ден/Пингвины - Колбасёры
TTITLE7=Шевченко Анастасия/Я Уже Не Та
TTITLE8=Бородин Арсений/Последний Звонок
TTITLE9=Корзин Алексей/Два Крыла
TTITLE10=Сабрина/Не Со Мной
TTITLE11=Шаляпин Прохор/Утраченная Юность
TTITLE12=Зара/Любовь-Красавица
TTITLE13=Архипов Роман/Я И Ты
TTITLE14=Гуркова Александра/Зови Меня
TTITLE15=Шаляпин Прохор/Проказница
TTITLE16=Согдиана/Сердце Магнит
TTITLE17=Бородин Арсений/Стань Моей
TTITLE18=Куликова Мила/Се Ля Ви
TTITLE19=Петров Ден/Для Тебя
EXTD=
EXTT0=
EXTT1=
EXTT2=
EXTT3=
EXTT4=
EXTT5=
EXTT6=
EXTT7=
EXTT8=
EXTT9=
EXTT10=
EXTT11=
EXTT12=
EXTT13=
EXTT14=
EXTT15=
EXTT16=
EXTT17=
EXTT18=
EXTT19=
PLAYORDER=
